<svg width="137" height="36" viewBox="0 0 137 36" fill="none" xmlns="http://www.w3.org/2000/svg">
<g id="Group 190130">
<g id="Group">
<path id="Vector" d="M92.402 7.39229C89.9897 7.39229 88.1296 8.25192 86.4037 10.0461V7.81037H81.6663V29.8095H86.7636V17.0505C86.7636 14.1295 88.503 12.2817 91.1422 12.2817C91.6218 12.2817 92.0421 12.341 92.3417 12.4002L95.8796 7.75C94.5002 7.5119 93.3008 7.39229 92.4009 7.39229H92.402ZM136.361 7.81037H130.484L125.056 14.9858L119.629 7.80925H113.752L122.044 18.8949L113.752 29.8095H119.749L125.026 22.8498L130.304 29.8095H136.361L128.013 18.9128L136.361 7.81037ZM29.311 2.86168C27.5716 5.18679 27.1513 5.96146 25.4723 5.96146H0.403564V35.771H10.2395C12.4584 35.771 14.6169 34.6978 15.9964 32.9093C17.7961 30.5249 18.0353 29.8095 19.7747 29.8095H44.9038V0H35.0075C32.7886 0 30.63 1.07313 29.3099 2.86168H29.311ZM37.1068 22.1188H26.6114C24.3321 22.1188 22.2339 23.0723 20.8545 24.9201C19.0548 27.3055 18.6948 28.021 17.0158 28.021H8.14015V13.7126H18.6356C20.9137 13.7126 23.0131 12.6394 24.3925 10.8509C26.1922 8.52579 26.6718 7.81037 28.2904 7.81037H37.1068V22.1188ZM74.7692 14.7857C76.9892 13.5337 78.5475 11.3271 78.5475 8.40618C78.5475 4.11366 75.2498 0 70.4521 0H56.0587V29.8095H70.4521C75.669 29.8095 79.2674 26.1128 79.2674 21.4626C79.2674 18.7205 78.0087 16.335 74.7692 14.7857ZM61.1561 4.65023H70.0318C72.2507 4.65023 73.5697 6.73724 73.5697 8.58503C73.5697 10.8509 71.5911 12.4002 69.7322 12.4002H61.1561V4.65023ZM69.7322 25.1593H61.1561V17.0505H70.0318C72.311 17.0505 74.17 19.0179 74.17 21.0456C74.17 23.3104 71.8315 25.1593 69.7322 25.1593Z" fill="white"/>
<path id="Vector_2" d="M108.655 23.4886C107.815 24.8009 106.195 25.5756 104.396 25.5756C101.579 25.5756 99.239 23.6674 99.239 20.7465H114.472C114.712 19.8522 114.771 19.4353 114.771 18.6595C114.771 11.9826 110.633 7.3916 104.397 7.3916C98.2788 7.3916 93.9617 11.7445 93.9617 18.8383C93.9617 25.7544 98.0988 30.2258 104.516 30.2258C109.015 30.2258 112.972 28.0203 114.112 23.4886H108.655ZM104.396 12.0419C107.215 12.0419 109.374 13.8304 109.314 16.5132H99.2983C99.2983 13.8908 101.579 12.0419 104.396 12.0419Z" fill="white"/>
</g>
</g>
</svg>
