<svg width="125" height="45" viewBox="0 0 125 45" fill="none" xmlns="http://www.w3.org/2000/svg">
<path id="Vector" d="M0 0.412109V35.773H14.6906V30.1037H5.62795V0.412109H0ZM15.6424 9.97134H20.7737V35.773H15.6424V9.97134ZM30.1261 26.5862H30.2088L33.6021 9.97134H38.7335L32.6917 35.773H27.6431L21.6014 9.97134H26.7327L30.1261 26.5862ZM39.5611 9.97134H44.6925V35.773H39.5611V9.97134ZM46.0788 35.773V9.97134H51.0446V12.9095C52.9275 11.0059 54.6656 9.49545 56.7967 9.49545C59.9418 9.49545 61.5763 11.3369 61.5763 16.1373V35.773H56.4243V16.7994C56.4243 15.082 55.9277 13.9647 54.5414 13.9647C53.4862 13.9647 52.3068 15.1234 51.2102 16.3028V35.7937C51.2102 35.773 46.0788 35.773 46.0788 35.773ZM73.722 37.4903C75.2738 37.6352 75.6048 38.0076 75.6048 38.8766C75.6048 40.2009 74.1771 40.925 71.7149 40.925C68.694 40.925 67.0181 40.3664 67.0181 39.0215C67.0181 38.0697 67.556 37.5524 68.0733 36.9317L73.722 37.4903ZM80.7362 9.47476C78.8119 9.47476 77.5498 10.5714 76.2462 12.4543C74.8806 10.6128 72.7495 9.51614 70.4528 9.47476C64.7007 9.47476 62.8592 13.6543 62.8592 19.1995C62.8592 23.5239 63.7075 26.2758 66.1904 28.1587C64.9283 29.0691 63.0868 30.4347 63.0868 32.4831C63.0868 34.1591 63.9765 35.2764 65.1973 36.1454C63.9765 37.0351 62.0936 38.2145 62.0936 40.1802C62.0936 43.0769 65.1145 44.877 70.5769 44.877C76.5359 44.877 80.4465 42.7872 80.4465 38.3801C80.4465 29.0484 67.556 34.0143 67.556 30.7865C67.556 30.1657 68.1561 29.7519 68.4458 29.276C69.1286 29.5243 69.8527 29.6278 70.5562 29.6071C75.6048 29.6071 77.9843 25.9034 77.9843 19.4478C77.9843 17.896 77.6532 16.5925 77.3429 14.8958C78.0464 14.6682 78.5636 14.3371 79.1016 14.3371C79.6396 14.4199 80.1775 14.544 80.6948 14.7303L80.7362 9.47476ZM73.1426 19.303C73.1426 23.8136 72.3977 24.7447 70.2045 24.7447C68.6527 24.7447 67.7629 23.1308 67.7629 19.903C67.7629 15.8683 68.5078 14.3164 70.4528 14.3164C72.2529 14.3164 73.1426 15.9717 73.1426 19.303ZM96.9579 24.3102V18.2891C96.9579 13.0129 93.5646 9.51614 88.785 9.51614C83.8812 9.51614 80.612 13.0129 80.612 18.6822V27.1242C80.612 32.7728 83.8812 36.2903 88.785 36.2903C93.9577 36.2903 96.6889 33.1866 96.9579 27.8483H91.8266C91.8266 29.8347 90.9782 31.4486 88.8057 31.4486C87.0883 31.4486 85.7848 30.3106 85.7848 27.7449V24.3309H96.9579V24.3102ZM85.8055 19.4685V18.0408C85.8055 15.7648 86.7366 14.3371 88.8264 14.3371C90.9162 14.3371 91.8472 15.7648 91.8472 18.0408V19.4685H85.8055ZM96.9579 14.813V9.97134H99.0063V3.8675H104.138V9.97134H107.448V14.813H104.158V29.1312C104.158 30.414 105.089 31.0348 106.496 31.0348C106.827 31.0348 107.179 31.0348 107.51 30.9934V36.0213C106.538 36.1868 105.565 36.2696 104.572 36.2489C101.241 36.2489 99.027 34.8212 99.027 31.1175V14.7923H96.9579V14.813ZM118.994 18.8892V17.7512C118.994 15.7648 117.773 14.7096 115.973 14.7096C114.173 14.7096 112.952 15.7441 112.952 17.7512V27.9932C112.952 29.9795 114.173 31.0348 115.973 31.0348C117.773 31.0348 118.994 30.0002 118.994 27.9932V26.3793H124.125V26.4827C124.125 33.3108 121.104 36.2489 115.952 36.2489C110.8 36.2489 107.779 33.3108 107.779 26.4827V19.2823C107.779 12.4543 110.8 9.51614 115.952 9.51614C120.98 9.51614 123.98 12.3715 124.063 18.9098L118.994 18.8892ZM39.5405 3.8675H44.6925V8.72988H39.5405V3.8675ZM15.6631 3.8675H20.8151V8.72988H15.6631V3.8675Z" fill="white"/>
</svg>
