<svg width="147" height="53" viewBox="0 0 147 53" fill="none" xmlns="http://www.w3.org/2000/svg">
<g id="Group 190125">
<g id="Group">
<path id="Vector" d="M49.7515 30.4096H54.7188V30.1915H52.4168C52.6107 29.7069 55.8576 20.6446 55.8576 20.6446H65.2834C65.2834 20.6446 68.5061 29.61 68.7241 30.1915H65.6468V30.4096H73.8853L63.0299 0L52.1745 30.1915H49.7515V30.4096ZM55.9061 20.4265L60.5584 7.51153L65.2107 20.4265H55.9061Z" fill="white"/>
<path id="Vector_2" d="M73.8608 30.4085H81.0816C89.4169 30.4085 96.1773 25.4897 96.1773 15.4824C96.1773 5.6205 89.7319 0.507812 80.9846 0.507812H70.7593V0.725888H73.8366C73.8608 0.725888 73.8608 30.4085 73.8608 30.4085ZM78.6343 30.2147V0.75012H80.5C82.6808 0.75012 84.4981 0.871273 85.855 1.5255C89.5139 3.27012 90.7739 7.77704 90.7739 15.4824C90.7739 22.8001 88.9323 27.1374 85.9277 29.1001C84.5466 29.9724 82.6081 30.1905 80.912 30.1905C80.912 30.2147 78.6343 30.2147 78.6343 30.2147Z" fill="white"/>
</g>
<path id="Vector_3" d="M146.093 46.8616V43.8812H138.557C138.557 43.8812 138.484 43.8812 138.484 43.9539V46.8858H138.605C138.605 45.4804 139.405 44.0266 141.15 44.0266H141.271C141.344 44.0266 141.344 44.0266 141.344 44.0993V52.3135C141.344 52.3619 141.344 52.3619 141.271 52.3619H140.229V52.4831H144.179V52.3619H143.088C143.015 52.3619 143.015 52.3619 143.015 52.3135V44.0993C143.015 44.0266 143.015 44.0266 143.088 44.0266H143.209C144.978 44.0266 145.826 45.4319 145.826 46.8858C145.899 46.91 146.093 46.91 146.093 46.8616ZM138.436 49.8419C138.436 48.3881 137.467 47.7823 135.892 47.225C134.365 46.6677 133.711 46.1831 133.711 45.335C133.711 44.4869 134.317 43.8812 135.286 43.8812C136.376 43.8812 137.345 44.9231 137.345 46.0619H137.467V43.76C137.467 43.7116 137.345 43.7116 137.345 43.76C137.345 43.8812 137.224 44.075 136.861 44.075C136.255 44.075 135.94 43.76 135.286 43.76C134.074 43.76 132.984 44.9231 132.984 46.4981C132.984 47.9519 133.905 48.5577 134.995 48.9939C136.885 49.6723 137.539 49.9631 137.539 51.1262C137.539 51.9258 136.934 52.7012 135.528 52.7012C133.953 52.7012 132.863 50.8112 132.863 49.8419C132.863 49.7692 132.742 49.7692 132.742 49.8419V52.8223C132.742 52.895 132.863 52.895 132.863 52.8223C132.863 52.58 133.178 52.3377 133.541 52.3377C134.026 52.3377 134.753 52.8223 135.601 52.8223C137.394 52.7496 138.436 51.1746 138.436 49.8419ZM132.039 52.5073V49.6966H131.918C131.918 50.9808 131.07 52.4346 129.059 52.4346H127.847C127.774 52.4346 127.774 52.4346 127.774 52.3862V48.1943H128.089C129.059 48.1943 129.664 48.9939 129.664 49.8419H129.785V46.3769H129.664C129.664 47.225 129.059 48.0246 128.089 48.0246H127.774V44.075C127.774 44.0023 127.774 44.0023 127.823 44.0023H128.986C130.512 44.0023 131.239 45.335 131.239 46.4981H131.36V43.9296C131.36 43.9296 131.36 43.8569 131.312 43.8569H124.915V43.9781H126.005C126.054 43.9781 126.054 43.9781 126.054 44.0508V52.265C126.054 52.3135 126.054 52.3135 126.005 52.3135H124.915V52.4346L132.039 52.5073ZM125.279 49.2846V49.1635H121.329V49.2846H122.419C122.492 49.2846 122.492 49.2846 122.492 49.3573V51.5381C122.492 52.2166 122.129 52.6285 121.038 52.6285C120.481 52.6285 120.069 52.5073 119.754 52.1439C119.197 51.5381 119.148 50.4962 119.148 48.2427C119.148 46.1104 119.342 44.8989 119.948 44.3416C120.311 43.9781 120.747 43.8569 121.232 43.8569C122.444 43.8569 123.485 45.4319 123.485 46.6435H123.607V43.7116H123.485C123.485 43.8327 123.243 44.0266 122.88 44.0266C122.444 44.0266 121.789 43.7116 121.232 43.7116C118.979 43.7116 117.282 45.8439 117.282 48.2185C117.282 50.5204 118.736 52.7254 121.062 52.7254C122.395 52.7254 123.001 52.1196 123.558 52.1196C123.922 52.1196 124.043 52.3135 124.115 52.5558C124.115 52.6285 124.309 52.6285 124.309 52.5558V49.2604C124.309 49.2604 124.309 49.2119 124.358 49.2119H125.327L125.279 49.2846ZM116.774 52.5073V52.3862H115.683C115.635 52.3862 115.635 52.3862 115.635 52.3135V44.0993C115.635 44.0508 115.635 44.0508 115.683 44.0508H116.774V43.9296H112.824V44.0508H113.914C113.987 44.0508 113.987 44.0508 113.987 44.0993V52.3135C113.987 52.3862 113.987 52.3862 113.914 52.3862H112.824V52.5073H116.774ZM110.74 48.1943C110.74 50.4962 110.546 51.3685 109.94 51.9016C109.577 52.265 109.214 52.3377 108.656 52.3377H107.687C107.614 52.3377 107.614 52.3377 107.614 52.2892V44.0266C107.614 43.9781 107.614 43.9781 107.687 43.9781H108.656C109.214 43.9781 109.625 44.0993 109.94 44.4143C110.57 45.0443 110.74 46.1831 110.74 48.1943ZM112.63 48.1943C112.63 45.8196 110.861 43.8812 108.729 43.8812H104.828V44.0023H105.87C105.942 44.0023 105.942 44.0023 105.942 44.075V52.2892C105.942 52.3377 105.942 52.3377 105.87 52.3377H104.828V52.4589H108.729C110.861 52.5073 112.63 50.5689 112.63 48.1943ZM101.508 52.5073V49.5996H101.387C101.387 50.8112 100.539 52.3862 98.7217 52.3862H97.6797C97.6313 52.3862 97.6313 52.3862 97.6313 52.3135V44.0993C97.6313 44.0508 97.6313 44.0508 97.6797 44.0508H98.7701V43.9296H94.8205V44.0508H95.9109C95.9594 44.0508 95.9594 44.0508 95.9594 44.0993V52.3135C95.9594 52.3862 95.9594 52.3862 95.9109 52.3862H94.8205V52.5073H101.508ZM77.7863 44.0508V43.9296H75.3632V44.0508H76.4536C76.5021 44.0508 76.5021 44.0508 76.5021 44.0993V50.0116C76.5021 51.5381 75.7752 52.5073 74.079 52.5073C72.7463 52.5073 72.3102 51.5866 72.3102 50.1327V44.0993C72.3102 44.0508 72.3102 44.0508 72.3586 44.0508H73.449V43.9296H69.4994V44.0508H70.5898C70.6625 44.0508 70.6625 44.0508 70.6625 44.0993V50.1327C70.6625 51.95 71.9467 52.7496 73.764 52.7496C75.7752 52.7496 76.6959 51.6592 76.6959 50.0116V44.0993C76.6959 44.0508 76.6959 44.0508 76.7444 44.0508H77.7863ZM69.0148 46.8616V43.8812H61.5275C61.5275 43.8812 61.479 43.8812 61.479 43.9539V46.8858H61.6002C61.6002 45.4804 62.3998 44.0266 64.1444 44.0266H64.2655C64.3382 44.0266 64.3382 44.0266 64.3382 44.0993V52.3135C64.3382 52.3619 64.3382 52.3619 64.2655 52.3619H63.2236V52.4831H67.1975V52.3619H66.1071C66.0344 52.3619 66.0344 52.3619 66.0344 52.3135V44.0993C66.0344 44.0266 66.0344 44.0266 66.1071 44.0266H66.2282C67.9971 44.0266 68.8452 45.4319 68.8452 46.8858C68.8452 46.91 69.0148 46.91 69.0148 46.8616ZM60.9217 52.7012V49.4058H60.8006C60.8006 50.9808 59.589 52.58 58.1352 52.58C57.5779 52.58 57.0933 52.4589 56.8025 52.0954C56.2452 51.4896 56.0029 50.2781 56.0029 48.1943C56.0029 46.1346 56.2452 44.8504 56.8025 44.2931C57.1659 43.9296 57.5294 43.8085 58.0867 43.8085C59.2982 43.8085 60.5825 45.3835 60.5825 46.595H60.7036V43.7358H60.5825C60.5825 43.8569 60.3402 44.0508 59.9767 44.0508C59.4194 44.0508 58.644 43.7358 58.0867 43.7358C55.7848 43.7358 54.1371 45.8681 54.1371 48.2427C54.1371 50.6658 55.8333 52.7496 58.1594 52.7496C58.8379 52.7496 59.7344 52.3862 60.2917 52.3862C60.6552 52.3862 60.849 52.6285 60.849 52.7496C60.8006 52.7012 60.9217 52.7012 60.9217 52.7012ZM53.6283 52.5073V49.6966H53.5071C53.5071 50.9808 52.659 52.4346 50.6479 52.4346H49.4363C49.3636 52.4346 49.3636 52.4346 49.3636 52.3862V48.1943H49.6786C50.6479 48.1943 51.2536 48.9939 51.2536 49.8419H51.3748V46.3769H51.2536C51.2536 47.225 50.6479 48.0246 49.6786 48.0246H49.3636V44.075C49.3636 44.0023 49.3636 44.0023 49.4363 44.0023H50.5994C52.1259 44.0023 52.8529 45.335 52.8529 46.4981H52.974V43.9296C52.974 43.9296 52.974 43.8569 52.9013 43.8569H46.5044V43.9781H47.5948C47.6675 43.9781 47.6675 43.9781 47.6675 44.0508V52.265C47.6675 52.3135 47.6675 52.3135 47.5948 52.3135H46.5044V52.4346L53.6283 52.5073ZM45.8986 46.8616V43.8812H38.4113C38.4113 43.8812 38.3629 43.8812 38.3629 43.9539V46.8858H38.484C38.484 45.4804 39.2837 44.0266 41.0283 44.0266H41.1494C41.1979 44.0266 41.1979 44.0266 41.1979 44.0993V52.3135C41.1979 52.3619 41.1979 52.3619 41.1494 52.3619H40.1075V52.4831H44.0571V52.3619H43.0152C42.9425 52.3619 42.9425 52.3619 42.9425 52.3135V44.0993C42.9425 44.0266 42.9425 44.0266 43.0152 44.0266H43.1363C44.9052 44.0266 45.7533 45.4319 45.7533 46.8858C45.7775 46.91 45.8986 46.91 45.8986 46.8616ZM37.8783 52.5073V52.3862H36.7879C36.7394 52.3862 36.7394 52.3862 36.7394 52.3135V44.0993C36.7394 44.0508 36.7394 44.0508 36.7879 44.0508H37.8783V43.9296H33.9287V44.0508H35.019C35.0917 44.0508 35.0917 44.0508 35.0917 44.0993V52.3135C35.0917 52.3862 35.0917 52.3862 35.019 52.3862H33.9287V52.5073H37.8783ZM33.1775 52.5073V52.3862H32.0871C32.0144 52.3862 32.0144 52.3862 32.0144 52.3135V44.0993C32.0144 44.0508 32.0144 44.0508 32.0871 44.0508H33.1775V43.9296H29.3491V44.0508H30.3183C30.3667 44.0508 30.3667 44.0508 30.3667 44.0993V48.0004H27.5802V44.0993C27.5802 44.0508 27.5802 44.0508 27.6529 44.0508H28.6221V43.9296H24.7937V44.0508H25.8356C25.8841 44.0508 25.8841 44.0508 25.8841 44.0993V52.3135C25.8841 52.3862 25.8841 52.3862 25.8356 52.3862H24.7937V52.5073H28.6221V52.3862H27.6529C27.6044 52.3862 27.6044 52.3862 27.6044 52.3135V48.1216H30.391V52.3135C30.391 52.3862 30.391 52.3862 30.3183 52.3862H29.3491V52.5073H33.1775ZM23.8729 52.7012V49.4058H23.7517C23.7517 50.9808 22.5402 52.58 21.0864 52.58C20.5291 52.58 20.0444 52.4589 19.7537 52.0954C19.1964 51.4896 18.9541 50.2781 18.9541 48.1943C18.9541 46.1346 19.1964 44.8504 19.7537 44.2931C20.1171 43.9296 20.4806 43.8085 21.0379 43.8085C22.2494 43.8085 23.5337 45.3835 23.5337 46.595H23.6548V43.7358H23.5337C23.5337 43.8569 23.2914 44.0508 22.9279 44.0508C22.3706 44.0508 21.5952 43.7358 21.0379 43.7358C18.736 43.7358 17.0883 45.8681 17.0883 48.2427C17.0883 50.6658 18.7844 52.7496 21.1106 52.7496C21.7891 52.7496 22.6856 52.3862 23.2429 52.3862C23.6064 52.3862 23.8002 52.6285 23.8002 52.7496C23.7517 52.7012 23.8729 52.7012 23.8729 52.7012ZM14.0837 46.0619C14.0837 47.5885 13.8414 47.9519 12.6783 47.9519H11.9514V44.0508C11.9514 43.9781 11.9514 43.9781 12.0241 43.9781H12.5814C13.7202 44.0508 14.0837 44.5596 14.0837 46.0619ZM17.6698 52.3377L17.5971 52.2166C17.4033 52.4104 17.2337 52.5316 16.9187 52.5316C16.4825 52.5316 16.1918 52.1681 16.1918 51.4896V50.3993C16.1918 49.1877 15.3921 48.0246 13.4537 48.0246C14.8591 48.0246 15.8283 47.1039 15.8283 46.0135C15.8283 44.8019 14.7379 43.8812 12.8964 43.8812H9.16484V44.0023H10.2552C10.3037 44.0023 10.3037 44.0023 10.3037 44.075V52.2892C10.3037 52.3377 10.3037 52.3377 10.2552 52.3377H9.16484V52.4589H13.066V52.3377H12.0241C11.9514 52.3377 11.9514 52.3377 11.9514 52.2892V48.0973H12.6783C13.7687 48.0973 14.4471 48.5335 14.4471 49.5512V50.3508C14.4471 52.1196 15.6102 52.7254 16.5794 52.7254C17.0641 52.7496 17.4275 52.58 17.6698 52.3377ZM5.38485 49.4785H2.88908L4.17331 45.8923L5.38485 49.4785ZM9.33446 52.5073V52.3862H8.31677C8.2683 52.3862 8.2683 52.3862 8.19561 52.3135L4.97292 43.6873C4.97292 43.6146 4.85177 43.6146 4.85177 43.6873L1.91985 51.8289C1.726 52.3135 1.726 52.3135 1.60485 52.3135H0.684082V52.4346H2.986C3.05869 52.4346 3.05869 52.3135 2.986 52.3135H1.94408C1.89562 52.3135 1.89562 52.265 2.06523 51.8289L2.86485 49.5754H5.48177L6.40254 52.3135C6.40254 52.3135 6.40254 52.3862 6.35408 52.3862H5.26369C5.21523 52.3862 5.21523 52.5073 5.26369 52.5073H9.33446ZM81.6632 47.9519H80.9363V44.0508C80.9363 43.9781 80.9363 43.9781 80.9848 43.9781H81.5421C82.7051 43.9781 83.0686 44.4627 83.0686 45.9893C83.1413 47.5885 82.8748 47.9519 81.6632 47.9519ZM85.9278 52.3862C85.4917 52.3862 85.2009 51.95 85.2009 51.3442V50.4235C85.2009 49.2119 84.4013 48.0489 82.4628 48.0489C83.8682 48.0489 84.8374 47.1281 84.8374 46.0377C84.8374 44.8262 83.7471 43.9054 81.9055 43.9054H78.1255V44.0266H79.2159C79.2886 44.0266 79.2886 44.0266 79.2886 44.075V52.2892C79.2886 52.3619 79.2886 52.3619 79.2159 52.3619H78.1255V52.4831H82.0267V52.3619H81.009C80.9605 52.3619 80.9605 52.3619 80.9605 52.2892V48.0973H81.6875C82.7778 48.0973 83.4563 48.5335 83.4563 49.5512V50.3508C83.4563 52.1196 84.6194 52.5316 85.5886 52.5316H85.9036V52.3377L85.9278 52.3862ZM90.4832 49.4785H87.9874L89.2717 45.8923L90.4832 49.4785ZM94.4328 52.5073V52.3862H93.3909C93.3424 52.3862 93.3424 52.3862 93.2698 52.3135L90.0713 43.6873C90.0713 43.6146 89.9501 43.6146 89.9501 43.6873L87.0182 51.8289C86.8244 52.3135 86.8244 52.3135 86.7032 52.3135H86.0248V52.4346H88.0844C88.1328 52.4346 88.1328 52.3135 88.0844 52.3135H87.0424C86.9698 52.3135 86.9698 52.265 87.1636 51.8289L87.9632 49.5754H90.5801L91.5009 52.3135C91.5009 52.3135 91.5009 52.3862 91.4524 52.3862H90.3621C90.2894 52.3862 90.2894 52.5073 90.3621 52.5073H94.4328Z" fill="white"/>
</g>
</svg>
