<svg width="163" height="30" viewBox="0 0 163 30" fill="none" xmlns="http://www.w3.org/2000/svg">
<g id="Group">
<path id="Vector" d="M72.4404 0.306641H64.5649L64.3171 1.33673H66.6026L63.7939 3.36908L62.8301 7.26673L72.4404 0.306641Z" fill="white"/>
<path id="Vector_2" d="M42.8018 0.28125H50.6498L43.7105 28.3165H35.8625L42.8018 0.28125Z" fill="white"/>
<path id="Vector_3" d="M53.7213 0.28125H61.5693L54.63 28.3165H46.782L53.7213 0.28125Z" fill="white"/>
<path id="Vector_4" d="M62.7925 7.38281H70.6956L65.5462 28.3188H57.6707L62.7925 7.38281Z" fill="white"/>
<path id="Vector_5" d="M139.437 14.1443C138.501 13.7267 137.592 13.4204 136.683 13.2256C135.802 13.0307 135.004 12.9472 134.288 12.9472C132.525 12.9472 131.066 13.4483 129.964 14.4505C126.715 17.2067 127.679 20.3805 128.477 21.3549C129.193 22.4129 131.286 23.6657 134.976 22.4964C135.802 22.2458 136.683 21.9118 137.592 21.4942L135.004 27.981C132.222 28.9832 129.248 28.9832 128.863 28.9832C125.944 28.9832 123.548 28.0923 121.648 26.3384C119.748 24.5844 119.308 21.6055 120.354 17.4295C121.07 14.5341 122.502 12.0284 124.65 9.9404C126.798 7.82454 129.882 6.7666 133.93 6.7666C134.893 6.7666 135.912 6.85012 136.986 6.98932C138.088 7.10069 139.244 7.32341 140.428 7.62965L139.437 14.1443Z" fill="white"/>
<path id="Vector_6" d="M103.97 10.5004C104.796 9.55385 105.98 8.74647 107.522 8.07831C109.037 7.3823 111.983 6.60277 113.911 6.63061C115.756 6.63061 117.326 7.10389 118.592 8.07831C119.859 9.02488 120.244 10.6118 119.749 12.839L115.921 28.2904H108.046L110.744 17.377C111.047 16.0963 110.965 15.1219 110.441 14.4259C109.946 13.7299 108.211 12.0873 104.796 15.0662C103.833 15.9571 103.089 17.2099 102.593 18.8525L100.253 28.3182H92.3772L97.499 7.60502H104.659L103.97 10.5004Z" fill="white"/>
<path id="Vector_7" d="M75.2707 8.54876C77.391 8.07548 79.291 7.71355 80.9708 7.49083C82.6781 7.24027 84.165 7.12891 85.4593 7.12891C88.5985 7.12891 90.7739 7.68571 91.9304 8.77149C93.087 9.85726 93.5551 11.1101 93.2797 12.5299L89.3695 28.2876H81.4664L83.7245 19.1003C83.3389 19.3508 82.9259 19.5457 82.4853 19.7406C82.0447 19.8798 78.9881 20.8264 78.3823 21.0491C75.9315 22.2462 76.7576 23.5826 77.0881 23.9723C78.1345 25.0303 80.8331 24.0558 80.8882 24.0558L78.8229 28.5938C78.6852 28.5938 76.1243 28.7887 75.8489 28.7887C72.875 28.7887 70.8648 28.2319 69.8184 27.1461C67.4502 25.0303 67.8357 18.6548 75.5736 16.6503C76.5373 16.3719 77.4736 16.1213 78.4098 15.9265C79.3186 15.7037 80.1722 15.5089 80.9432 15.2861C81.9346 15.0356 82.7607 14.785 83.4216 14.5066C85.4317 13.5043 85.1839 11.7782 81.6592 11.7782C80.8331 11.7782 79.7316 11.9174 78.3548 12.2237C77.0055 12.5021 75.2982 13.0311 73.288 13.8106L75.2707 8.54876Z" fill="white"/>
<path id="Vector_8" fill-rule="evenodd" clip-rule="evenodd" d="M18.6303 14.452H25.1014L24.1652 6.51749L18.6303 14.452ZM20.5303 0.28125H34.5741L31.5451 3.62209L35.4828 28.3443H26.3131L25.4043 20.1593H15.6838L9.92865 28.3443H0.813965L20.5303 0.28125Z" fill="white"/>
<path id="Vector_9" fill-rule="evenodd" clip-rule="evenodd" d="M154.773 15.2037C155.104 13.8952 154.966 12.9207 154.388 12.3918C153.837 11.835 153.066 11.5844 152.13 11.5844C151.303 11.5844 150.45 11.8906 149.596 12.531C148.743 13.1713 148.192 14.0622 147.889 15.2037H154.773ZM153.919 6.8237C156.893 6.71234 160.005 7.88164 161.244 9.91398C162.483 11.9185 162.786 14.1736 162.153 16.7349C162.043 17.1246 161.492 18.7672 161.327 19.1848L146.54 19.1291C146.595 20.5768 147.063 21.7183 147.944 22.4978C148.825 23.2495 150.119 23.6393 151.744 23.6393C152.708 23.6393 153.782 23.5001 154.993 23.2217C156.233 22.9433 157.554 22.5813 158.959 22.1359L156.838 28.0102C155.379 28.3721 153.975 28.6505 152.68 28.8176C151.386 29.0403 150.202 29.1238 149.101 29.1238C144.832 29.1238 141.941 27.9824 140.371 25.6716C138.554 23.0825 136.654 16.8184 144.006 10.2759C147.724 7.01859 151.138 6.93507 153.919 6.8237Z" fill="white"/>
</g>
</svg>
