<svg width="122" height="45" viewBox="0 0 122 45" fill="none" xmlns="http://www.w3.org/2000/svg">
<g id="Group 190127">
<path id="XMLID_13_" d="M121.115 35.9807C121.115 34.0126 120.693 32.3657 119.95 31.2611C119.046 29.8955 117.781 28.9515 115.853 28.0879L112.138 26.4411C111.174 25.9993 110.431 25.3968 110.069 24.7943C109.748 24.2922 109.647 23.8102 109.647 23.0872C109.647 22.2035 109.908 21.4403 110.451 20.8981C110.933 20.396 111.676 20.0746 112.519 20.0746C113.262 20.0746 113.945 20.3558 114.487 20.9583C115.01 21.5608 115.291 22.324 115.291 23.5892H120.814C120.814 20.6771 119.91 18.6487 118.424 17.1826C116.998 15.7567 114.869 14.9935 112.539 14.9935C110.21 14.9935 108.02 15.8169 106.494 17.4035C105.008 18.9901 104.044 20.7976 104.044 23.5892C104.044 25.1758 104.305 26.5013 104.948 27.5256C105.751 28.8511 107.117 29.9959 109.045 30.8595L112.76 32.5666C113.764 33.0084 114.507 33.5506 114.929 34.2134C115.351 34.8762 115.512 35.5389 115.512 36.3423C115.512 37.2661 115.251 38.1498 114.708 38.6318C114.066 39.2343 113.443 39.4552 112.539 39.4552C111.796 39.4552 110.953 39.174 110.41 38.5715C109.768 37.9088 109.446 36.9849 109.446 35.8402H103.883C103.883 38.5715 104.727 40.6 106.374 42.3673C107.8 43.8936 110.149 44.7171 112.539 44.7171C114.929 44.7171 116.938 44.1146 118.645 42.3673C120.05 40.9012 121.115 38.8125 121.115 35.9807ZM104.124 20.637V14.9935C102.477 14.9935 100.991 15.4353 99.7662 16.1985C98.8022 16.801 97.9185 17.6244 97.316 18.5081V15.4153H91.8934V44.2953H97.5168V25.6177C97.5168 22.4846 99.5252 20.637 102.196 20.637H104.124ZM85.3261 29.8352C85.3261 34.113 85.2659 37.0653 84.5228 38.3908C84.0408 39.1539 83.1973 39.5355 82.3538 39.5355C81.5103 39.5355 80.6467 39.1539 80.1848 38.3908C79.4417 37.0853 79.3814 34.113 79.3814 29.8352C79.3814 25.5574 79.4417 22.6654 80.1848 21.3399C80.6668 20.5767 81.5103 20.1349 82.3538 20.1349C83.1973 20.1349 84.0609 20.5767 84.5228 21.3399C85.2659 22.6654 85.3261 25.5574 85.3261 29.8352ZM90.9495 29.8352C90.9495 24.9549 90.7286 20.5165 88.9813 18.006C87.3345 15.6563 85.045 14.9935 82.3538 14.9935C79.6425 14.9935 77.3731 15.6563 75.7262 18.006C73.979 20.5366 73.7581 24.975 73.7581 29.8352C73.7581 34.7155 73.979 39.1539 75.7262 41.6644C77.3731 44.0141 79.6626 44.7371 82.3538 44.7371C85.0651 44.7371 87.3345 44.0342 88.9813 41.6644C90.7487 39.1539 90.9495 34.7155 90.9495 29.8352ZM72.7941 8.00446H67.1707V13.3868H72.7941V8.00446ZM72.7941 15.4153H67.1707V44.2953H72.7941V15.4153ZM66.6887 20.637V14.9935C65.0418 14.9935 63.5556 15.4353 62.3306 16.1985C61.3666 16.801 60.4829 17.6244 59.8804 18.5081V15.4153H54.4578V44.2953H60.0812V25.6177C60.0812 22.4846 62.0896 20.637 64.7607 20.637H66.6887ZM47.9508 27.2645H42.0663C42.0663 24.3122 42.2872 22.1231 42.9098 21.2997C43.3918 20.637 44.0144 20.155 45.0387 20.155C46.0429 20.155 46.6855 20.6571 47.1675 21.2997C47.7901 22.1031 47.9508 24.2922 47.9508 27.2645ZM53.5742 31.5423C53.5139 26.1198 53.7348 20.2554 51.0236 17.3031C49.3767 15.4956 47.3684 14.9935 45.0186 14.9935C42.7291 14.9935 40.7207 15.5358 39.0136 17.3031C36.6237 19.7734 36.4229 24.5934 36.4229 29.8553C36.4229 35.1172 36.6438 39.9372 39.0136 42.4075C40.7408 44.1346 42.4881 44.7371 45.0788 44.7371C47.529 44.7371 49.698 44.0744 51.124 42.4275C52.7106 40.62 53.3532 38.21 53.4537 35.8H47.8704C47.8704 36.6837 47.6094 37.8284 47.1876 38.3707C46.6654 39.0736 46.0228 39.5154 45.0588 39.5154C44.0546 39.5154 43.3115 39.0134 42.8897 38.3707C42.2069 37.3263 42.0462 34.8159 42.0462 31.5222H53.5742V31.5423ZM37.186 44.2953V39.0937C34.535 39.0937 33.2095 37.8887 33.2095 35.1975V19.8537H37.0856V15.4153H33.1894V7.98438H27.566V15.4153H24.6941V19.8537H27.566V35.5188C27.566 38.9129 28.6305 41.102 30.3777 42.528C32.3058 44.0744 34.535 44.2953 37.186 44.2953ZM24.8146 44.2953V23.4888C24.8146 20.155 24.3326 18.5483 23.228 17.2429C21.9628 15.7165 20.4163 14.9935 18.1268 14.9935C17.1226 14.9935 16.1185 15.2747 15.3151 15.7567C14.6323 16.1383 13.9294 16.9014 13.4674 17.5642V15.4153H8.0449V44.2953H13.6683V23.529C13.6683 21.2796 14.8934 20.1951 16.4197 20.1951C17.9661 20.1951 19.1712 21.2997 19.1712 23.529V44.2953H24.8146ZM6.23739 8.00446H0.694346V13.3868H6.23739V8.00446ZM6.23739 15.4153H0.614014V44.2953H6.23739V15.4153Z" fill="white"/>
<path id="XMLID_3_" d="M66.3674 5.936V3.84732C65.7649 3.84732 65.2226 4.00799 64.7607 4.28916C64.3992 4.51008 64.0779 4.81133 63.857 5.13266V4.00799H61.8687V14.6522H63.9373V7.7636C63.9373 6.61884 64.6804 5.91592 65.6645 5.91592H66.3674M59.4587 8.3661H57.2897C57.2897 7.28159 57.37 6.45817 57.611 6.15692C57.7918 5.91592 58.0127 5.73517 58.3943 5.73517C58.7558 5.73517 58.9968 5.91592 59.1775 6.15692C59.3984 6.47826 59.4587 7.28159 59.4587 8.3661ZM61.5273 9.9527C61.5072 7.94435 61.5875 5.79542 60.5834 4.69083C59.9809 4.02807 59.2378 3.84732 58.3742 3.84732C57.5307 3.84732 56.7876 4.04816 56.165 4.69083C55.2813 5.59458 55.201 7.38201 55.201 9.33011C55.201 11.2782 55.2813 13.0456 56.165 13.9493C56.7876 14.592 57.4303 14.8129 58.3943 14.8129C59.298 14.8129 60.1014 14.5719 60.6235 13.9694C61.206 13.3066 61.447 12.423 61.4871 11.5192H59.4386C59.4386 11.8405 59.3382 12.2623 59.1775 12.4631C58.9767 12.7242 58.7558 12.8849 58.3943 12.8849C58.0328 12.8849 57.7516 12.7041 57.5909 12.4631C57.3298 12.0815 57.2696 11.1577 57.2696 9.93262H61.5273V9.9527ZM55.4822 14.6522V12.7242C54.4981 12.7242 54.0161 12.2824 54.0161 11.2983V5.63475H55.442V4.00799H54.0161V0.272461H51.9475V4.00799H51.3851V5.63475H51.9475V11.4188C51.9475 12.664 52.3291 13.4874 52.9918 14.0096C53.6746 14.5719 54.4981 14.6522 55.4822 14.6522ZM51.4855 14.6522V12.7242C50.5015 12.7242 50.0195 12.2824 50.0195 11.2983V5.63475H50.9634V4.00799H50.0195V0.272461H47.9509V4.00799H46.8864V5.63475H47.9509V11.4188C47.9509 12.664 48.3525 13.4874 48.9952 14.0096C49.678 14.5719 50.5015 14.6522 51.4855 14.6522ZM45.1191 8.3661H42.9501C42.9501 7.28159 43.0304 6.45817 43.2714 6.15692C43.4522 5.91592 43.6731 5.73517 44.0547 5.73517C44.4162 5.73517 44.6572 5.91592 44.8379 6.15692C45.0588 6.47826 45.1191 7.28159 45.1191 8.3661ZM47.1877 9.9527C47.1676 7.94435 47.2479 5.79542 46.2438 4.69083C45.6413 4.02807 44.8982 3.84732 44.0346 3.84732C43.1911 3.84732 42.448 4.04816 41.8254 4.69083C40.9417 5.59458 40.8614 7.38201 40.8614 9.33011C40.8614 11.2782 40.9417 13.0456 41.8254 13.9493C42.448 14.592 43.0906 14.8129 44.0547 14.8129C44.9584 14.8129 45.7618 14.5719 46.2839 13.9694C46.8663 13.3066 47.1073 12.423 47.1475 11.5192H45.099C45.099 11.8405 44.9986 12.2623 44.8379 12.4631C44.6371 12.7242 44.4162 12.8849 44.0547 12.8849C43.6932 12.8849 43.412 12.7041 43.2513 12.4631C42.9902 12.0815 42.93 11.1577 42.93 9.93262H47.1877V9.9527ZM38.371 9.33011C38.371 10.8966 38.3509 12.0012 38.0698 12.4832C37.889 12.7644 37.6079 12.905 37.2865 12.905C37.0254 12.905 36.7644 12.8246 36.5836 12.6439C36.3627 12.423 36.2422 12.1016 36.2422 11.6397V7.06068C36.2422 6.59876 36.3627 6.27742 36.5836 6.0565C36.7644 5.87575 37.0254 5.77533 37.2865 5.77533C37.6079 5.77533 37.889 5.936 38.0698 6.21717C38.3509 6.67909 38.371 7.74352 38.371 9.33011ZM40.4396 9.33011C40.4396 7.02051 40.3995 5.55442 39.7166 4.69083C39.2547 4.10841 38.6924 3.8674 37.889 3.8674C37.5275 3.8674 37.1459 3.96782 36.8447 4.14857C36.6238 4.26907 36.4029 4.48999 36.2422 4.71091V0.292543H34.1736V14.6723H36.1618V13.869C36.2823 14.0698 36.6238 14.4112 36.8447 14.5317C37.1459 14.7125 37.5074 14.833 37.889 14.833C38.6522 14.833 39.2346 14.6121 39.7166 14.0096C40.3995 13.1259 40.4396 11.6196 40.4396 9.33011Z" fill="white"/>
</g>
</svg>
