<svg width="137" height="36" viewBox="0 0 137 36" fill="none" xmlns="http://www.w3.org/2000/svg">
<g id="Group 190126">
<g id="Group">
<path id="Vector" d="M92.4018 7.4714C89.9895 7.4714 88.1294 8.33102 86.4034 10.1252V7.88947H81.666V29.8886H86.7634V17.1296C86.7634 14.2086 88.5027 12.3608 91.142 12.3608C91.6215 12.3608 92.0418 12.4201 92.3414 12.4793L95.8794 7.82911C94.5 7.59101 93.3005 7.4714 92.4007 7.4714H92.4018ZM136.361 7.88947H130.483L125.056 15.0649L119.629 7.88835H113.751L122.044 18.974L113.751 29.8886H119.749L125.026 22.9289L130.303 29.8886H136.361L128.013 18.9919L136.361 7.88947ZM29.3107 2.94078C27.5714 5.26589 27.1511 6.04056 25.4721 6.04056H0.40332V35.8501H10.2392C12.4581 35.8501 14.6167 34.7769 15.9961 32.9884C17.7958 30.604 18.0351 29.8886 19.7744 29.8886H44.9035V0.0791016H35.0073C32.7883 0.0791016 30.6298 1.15223 29.3096 2.94078H29.3107ZM37.1066 22.1979H26.6111C24.3319 22.1979 22.2337 23.1514 20.8543 24.9992C19.0545 27.3846 18.6946 28.1001 17.0156 28.1001H8.13991V13.7917H18.6353C20.9135 13.7917 23.0128 12.7185 24.3922 10.93C26.192 8.60489 26.6715 7.88947 28.2901 7.88947H37.1066V22.1979ZM74.7689 14.8648C76.989 13.6128 78.5472 11.4062 78.5472 8.48528C78.5472 4.19276 75.2496 0.0791016 70.4518 0.0791016H56.0585V29.8886H70.4518C75.6688 29.8886 79.2671 26.1919 79.2671 21.5417C79.2671 18.7996 78.0084 16.4141 74.7689 14.8648ZM61.1558 4.72933H70.0315C72.2504 4.72933 73.5695 6.81634 73.5695 8.66413C73.5695 10.93 71.5909 12.4793 69.7319 12.4793H61.1558V4.72933ZM69.7319 25.2384H61.1558V17.1296H70.0315C72.3108 17.1296 74.1698 19.097 74.1698 21.1247C74.1698 23.3895 71.8312 25.2384 69.7319 25.2384Z" fill="white"/>
<path id="Vector_2" d="M108.654 23.5677C107.815 24.88 106.195 25.6547 104.395 25.6547C101.578 25.6547 99.2388 23.7465 99.2388 20.8256H114.471C114.712 19.9313 114.771 19.5144 114.771 18.7386C114.771 12.0617 110.633 7.4707 104.396 7.4707C98.2785 7.4707 93.9614 11.8236 93.9614 18.9174C93.9614 25.8335 98.0986 30.3049 104.516 30.3049C109.014 30.3049 112.972 28.0994 114.111 23.5677H108.654ZM104.395 12.121C107.215 12.121 109.374 13.9095 109.314 16.5923H99.298C99.298 13.9699 101.578 12.121 104.395 12.121Z" fill="white"/>
</g>
</g>
</svg>
