<svg width="125" height="45" viewBox="0 0 125 45" fill="none" xmlns="http://www.w3.org/2000/svg">
<path id="Vector" d="M0 0V35.3609H14.6906V29.6916H5.62795V0H0ZM15.6424 9.55923H20.7737V35.3609H15.6424V9.55923ZM30.1261 26.1741H30.2088L33.6021 9.55923H38.7335L32.6917 35.3609H27.6431L21.6014 9.55923H26.7327L30.1261 26.1741ZM39.5611 9.55923H44.6925V35.3609H39.5611V9.55923ZM46.0788 35.3609V9.55923H51.0446V12.4974C52.9275 10.5938 54.6656 9.08334 56.7967 9.08334C59.9418 9.08334 61.5763 10.9248 61.5763 15.7251V35.3609H56.4243V16.3873C56.4243 14.6699 55.9277 13.5526 54.5414 13.5526C53.4862 13.5526 52.3068 14.7113 51.2102 15.8907V35.3816C51.2102 35.3609 46.0788 35.3609 46.0788 35.3609ZM73.722 37.0782C75.2738 37.2231 75.6048 37.5955 75.6048 38.4645C75.6048 39.7888 74.1771 40.5129 71.7149 40.5129C68.694 40.5129 67.0181 39.9543 67.0181 38.6094C67.0181 37.6576 67.556 37.1403 68.0733 36.5196L73.722 37.0782ZM80.7362 9.06265C78.8119 9.06265 77.5498 10.1593 76.2462 12.0421C74.8806 10.2007 72.7495 9.10403 70.4528 9.06265C64.7007 9.06265 62.8592 13.2422 62.8592 18.7874C62.8592 23.1118 63.7075 25.8637 66.1904 27.7466C64.9283 28.657 63.0868 30.0226 63.0868 32.071C63.0868 33.747 63.9765 34.8643 65.1973 35.7333C63.9765 36.623 62.0936 37.8024 62.0936 39.7681C62.0936 42.6648 65.1145 44.4649 70.5769 44.4649C76.5359 44.4649 80.4465 42.3751 80.4465 37.9679C80.4465 28.6363 67.556 33.6021 67.556 30.3744C67.556 29.7536 68.1561 29.3398 68.4458 28.8639C69.1286 29.1122 69.8527 29.2157 70.5562 29.195C75.6048 29.195 77.9843 25.4913 77.9843 19.0357C77.9843 17.4839 77.6532 16.1803 77.3429 14.4837C78.0464 14.2561 78.5636 13.925 79.1016 13.925C79.6396 14.0078 80.1775 14.1319 80.6948 14.3182L80.7362 9.06265ZM73.1426 18.8909C73.1426 23.4015 72.3977 24.3326 70.2045 24.3326C68.6527 24.3326 67.7629 22.7187 67.7629 19.4909C67.7629 15.4562 68.5078 13.9043 70.4528 13.9043C72.2529 13.9043 73.1426 15.5596 73.1426 18.8909ZM96.9579 23.8981V17.877C96.9579 12.6008 93.5646 9.10403 88.785 9.10403C83.8812 9.10403 80.612 12.6008 80.612 18.2701V26.712C80.612 32.3607 83.8812 35.8782 88.785 35.8782C93.9577 35.8782 96.6889 32.7745 96.9579 27.4362H91.8266C91.8266 29.4226 90.9782 31.0365 88.8057 31.0365C87.0883 31.0365 85.7848 29.8985 85.7848 27.3328V23.9188H96.9579V23.8981ZM85.8055 19.0564V17.6287C85.8055 15.3527 86.7366 13.925 88.8264 13.925C90.9162 13.925 91.8472 15.3527 91.8472 17.6287V19.0564H85.8055ZM96.9579 14.4009V9.55923H99.0063V3.45539H104.138V9.55923H107.448V14.4009H104.158V28.7191C104.158 30.0019 105.089 30.6227 106.496 30.6227C106.827 30.6227 107.179 30.6226 107.51 30.5813V35.6092C106.538 35.7747 105.565 35.8575 104.572 35.8368C101.241 35.8368 99.027 34.4091 99.027 30.7054V14.3802H96.9579V14.4009ZM118.994 18.477V17.339C118.994 15.3527 117.773 14.2975 115.973 14.2975C114.173 14.2975 112.952 15.332 112.952 17.339V27.5811C112.952 29.5674 114.173 30.6227 115.973 30.6227C117.773 30.6227 118.994 29.5881 118.994 27.5811V25.9672H124.125V26.0706C124.125 32.8987 121.104 35.8368 115.952 35.8368C110.8 35.8368 107.779 32.8987 107.779 26.0706V18.8702C107.779 12.0421 110.8 9.10403 115.952 9.10403C120.98 9.10403 123.98 11.9594 124.063 18.4977L118.994 18.477ZM39.5405 3.45539H44.6925V8.31777H39.5405V3.45539ZM15.6631 3.45539H20.8151V8.31777H15.6631V3.45539Z" fill="white"/>
</svg>
