<svg width="122" height="46" viewBox="0 0 122 46" fill="none" xmlns="http://www.w3.org/2000/svg">
<g id="Group 190124">
<path id="XMLID_13_" d="M121.185 36.514C121.185 34.5458 120.763 32.8989 120.02 31.7943C119.116 30.4287 117.851 29.4847 115.923 28.6211L112.208 26.9743C111.244 26.5325 110.501 25.93 110.139 25.3275C109.818 24.8254 109.717 24.3434 109.717 23.6204C109.717 22.7367 109.978 21.9735 110.521 21.4313C111.003 20.9292 111.746 20.6078 112.589 20.6078C113.332 20.6078 114.015 20.889 114.557 21.4915C115.08 22.094 115.361 22.8572 115.361 24.1224H120.884C120.884 21.2103 119.98 19.1819 118.494 17.7158C117.068 16.2899 114.939 15.5267 112.609 15.5267C110.28 15.5267 108.091 16.3501 106.564 17.9367C105.078 19.5233 104.114 21.3308 104.114 24.1224C104.114 25.709 104.375 27.0345 105.018 28.0588C105.821 29.3843 107.187 30.5291 109.115 31.3927L112.83 33.0998C113.834 33.5416 114.578 34.0839 114.999 34.7466C115.421 35.4094 115.582 36.0721 115.582 36.8755C115.582 37.7993 115.321 38.683 114.778 39.165C114.136 39.7675 113.513 39.9884 112.609 39.9884C111.866 39.9884 111.023 39.7072 110.48 39.1047C109.838 38.442 109.516 37.5181 109.516 36.3734H103.953C103.953 39.1047 104.797 41.1332 106.444 42.9005C107.87 44.4268 110.219 45.2503 112.609 45.2503C114.999 45.2503 117.008 44.6478 118.715 42.9005C120.121 41.4344 121.185 39.3457 121.185 36.514ZM104.194 21.1702V15.5267C102.548 15.5267 101.061 15.9685 99.8362 16.7317C98.8722 17.3342 97.9886 18.1576 97.3861 19.0413V15.9485H91.9635V44.8285H97.5869V26.1509C97.5869 23.0178 99.5952 21.1702 102.266 21.1702H104.194ZM85.3962 30.3684C85.3962 34.6462 85.336 37.5985 84.5929 38.924C84.1109 39.6871 83.2674 40.0687 82.4239 40.0687C81.5804 40.0687 80.7168 39.6871 80.2548 38.924C79.5118 37.6185 79.4515 34.6462 79.4515 30.3684C79.4515 26.0906 79.5118 23.1986 80.2548 21.8731C80.7369 21.1099 81.5804 20.6681 82.4239 20.6681C83.2674 20.6681 84.131 21.1099 84.5929 21.8731C85.336 23.1986 85.3962 26.0906 85.3962 30.3684ZM91.0196 30.3684C91.0196 25.4881 90.7987 21.0497 89.0514 18.5392C87.4046 16.1895 85.1151 15.5267 82.4239 15.5267C79.7126 15.5267 77.4432 16.1895 75.7963 18.5392C74.049 21.0698 73.8281 25.5082 73.8281 30.3684C73.8281 35.2487 74.049 39.6871 75.7963 42.1976C77.4432 44.5473 79.7327 45.2704 82.4239 45.2704C85.1351 45.2704 87.4046 44.5674 89.0514 42.1976C90.8188 39.6871 91.0196 35.2487 91.0196 30.3684ZM72.8641 8.53766H67.2407V13.92H72.8641V8.53766ZM72.8641 15.9485H67.2407V44.8285H72.8641V15.9485ZM66.7587 21.1702V15.5267C65.1119 15.5267 63.6257 15.9685 62.4006 16.7317C61.4366 17.3342 60.5529 18.1576 59.9504 19.0413V15.9485H54.5279V44.8285H60.1513V26.1509C60.1513 23.0178 62.1596 21.1702 64.8307 21.1702H66.7587ZM48.0209 27.7977H42.1364C42.1364 24.8454 42.3573 22.6563 42.9799 21.8329C43.4619 21.1702 44.0845 20.6882 45.1087 20.6882C46.1129 20.6882 46.7556 21.1903 47.2376 21.8329C47.8602 22.6363 48.0209 24.8254 48.0209 27.7977ZM53.6442 32.0755C53.584 26.653 53.8049 20.7886 51.0936 17.8363C49.4468 16.0288 47.4384 15.5267 45.0887 15.5267C42.7991 15.5267 40.7908 16.069 39.0837 17.8363C36.6938 20.3066 36.4929 25.1266 36.4929 30.3885C36.4929 35.6504 36.7139 40.4704 39.0837 42.9407C40.8109 44.6678 42.5581 45.2704 45.1489 45.2704C47.5991 45.2704 49.7681 44.6076 51.194 42.9608C52.7806 41.1532 53.4233 38.7432 53.5237 36.3332H47.9405C47.9405 37.2169 47.6794 38.3616 47.2577 38.9039C46.7355 39.6068 46.0928 40.0486 45.1288 40.0486C44.1247 40.0486 43.3816 39.5466 42.9598 38.9039C42.277 37.8595 42.1163 35.3491 42.1163 32.0554H53.6442V32.0755ZM37.2561 44.8285V39.6269C34.6051 39.6269 33.2796 38.4219 33.2796 35.7307V20.3869H37.1557V15.9485H33.2595V8.51758H27.6361V15.9485H24.7642V20.3869H27.6361V36.052C27.6361 39.4461 28.7005 41.6352 30.4478 43.0612C32.3758 44.6076 34.6051 44.8285 37.2561 44.8285ZM24.8847 44.8285V24.022C24.8847 20.6882 24.4027 19.0815 23.2981 17.7761C22.0328 16.2497 20.4864 15.5267 18.1969 15.5267C17.1927 15.5267 16.1885 15.8079 15.3852 16.2899C14.7024 16.6715 13.9994 17.4346 13.5375 18.0974V15.9485H8.11497V44.8285H13.7383V24.0622C13.7383 21.8128 14.9634 20.7283 16.4898 20.7283C18.0362 20.7283 19.2412 21.8329 19.2412 24.0622V44.8285H24.8847ZM6.30746 8.53766H0.764415V13.92H6.30746V8.53766ZM6.30746 15.9485H0.684082V44.8285H6.30746V15.9485Z" fill="white"/>
<path id="XMLID_3_" d="M66.4375 6.46921V4.38052C65.835 4.38052 65.2927 4.54119 64.8308 4.82236C64.4693 5.04328 64.148 5.34453 63.927 5.66587V4.54119H61.9388V15.1854H64.0074V8.2968C64.0074 7.15204 64.7505 6.44912 65.7346 6.44912H66.4375M59.5288 8.89931H57.3597C57.3597 7.8148 57.4401 6.99137 57.6811 6.69012C57.8618 6.44912 58.0827 6.26837 58.4643 6.26837C58.8258 6.26837 59.0668 6.44912 59.2476 6.69012C59.4685 7.01146 59.5288 7.8148 59.5288 8.89931ZM61.5974 10.4859C61.5773 8.47755 61.6576 6.32862 60.6534 5.22403C60.0509 4.56128 59.3078 4.38052 58.4442 4.38052C57.6007 4.38052 56.8577 4.58136 56.2351 5.22403C55.3514 6.12779 55.2711 7.91522 55.2711 9.86331C55.2711 11.8114 55.3514 13.5788 56.2351 14.4825C56.8577 15.1252 57.5003 15.3461 58.4643 15.3461C59.3681 15.3461 60.1714 15.1051 60.6936 14.5026C61.276 13.8398 61.517 12.9562 61.5572 12.0524H59.5087C59.5087 12.3738 59.4083 12.7955 59.2476 12.9963C59.0468 13.2574 58.8258 13.4181 58.4643 13.4181C58.1028 13.4181 57.8217 13.2373 57.661 12.9963C57.3999 12.6148 57.3397 11.6909 57.3397 10.4658H61.5974V10.4859ZM55.5522 15.1854V13.2574C54.5681 13.2574 54.0861 12.8156 54.0861 11.8315V6.16795H55.5121V4.54119H54.0861V0.805664H52.0175V4.54119H51.4552V6.16795H52.0175V11.952C52.0175 13.1972 52.3991 14.0206 53.0619 14.5428C53.7447 15.1051 54.5681 15.1854 55.5522 15.1854ZM51.5556 15.1854V13.2574C50.5715 13.2574 50.0895 12.8156 50.0895 11.8315V6.16795H51.0334V4.54119H50.0895V0.805664H48.0209V4.54119H46.9565V6.16795H48.0209V11.952C48.0209 13.1972 48.4226 14.0206 49.0653 14.5428C49.7481 15.1051 50.5715 15.1854 51.5556 15.1854ZM45.1892 8.89931H43.0201C43.0201 7.8148 43.1005 6.99137 43.3415 6.69012C43.5222 6.44912 43.7431 6.26837 44.1247 6.26837C44.4862 6.26837 44.7272 6.44912 44.908 6.69012C45.1289 7.01146 45.1892 7.8148 45.1892 8.89931ZM47.2577 10.4859C47.2377 8.47755 47.318 6.32862 46.3138 5.22403C45.7113 4.56128 44.9682 4.38052 44.1046 4.38052C43.2611 4.38052 42.518 4.58136 41.8955 5.22403C41.0118 6.12779 40.9315 7.91522 40.9315 9.86331C40.9315 11.8114 41.0118 13.5788 41.8955 14.4825C42.518 15.1252 43.1607 15.3461 44.1247 15.3461C45.0285 15.3461 45.8318 15.1051 46.354 14.5026C46.9364 13.8398 47.1774 12.9562 47.2176 12.0524H45.1691C45.1691 12.3738 45.0686 12.7955 44.908 12.9963C44.7071 13.2574 44.4862 13.4181 44.1247 13.4181C43.7632 13.4181 43.4821 13.2373 43.3214 12.9963C43.0603 12.6148 43.0001 11.6909 43.0001 10.4658H47.2577V10.4859ZM38.4411 9.86331C38.4411 11.4298 38.421 12.5344 38.1398 13.0164C37.9591 13.2976 37.6779 13.4382 37.3566 13.4382C37.0955 13.4382 36.8344 13.3578 36.6537 13.1771C36.4328 12.9562 36.3123 12.6348 36.3123 12.1729V7.59388C36.3123 7.13196 36.4328 6.81062 36.6537 6.58971C36.8344 6.40895 37.0955 6.30854 37.3566 6.30854C37.6779 6.30854 37.9591 6.46921 38.1398 6.75037C38.421 7.21229 38.4411 8.27672 38.4411 9.86331ZM40.5097 9.86331C40.5097 7.55371 40.4695 6.08762 39.7867 5.22403C39.3248 4.64161 38.7624 4.40061 37.9591 4.40061C37.5976 4.40061 37.216 4.50102 36.9148 4.68177C36.6938 4.80228 36.4729 5.02319 36.3123 5.24411V0.825746H34.2437V15.2055H36.2319V14.4022C36.3524 14.603 36.6938 14.9444 36.9148 15.0649C37.216 15.2457 37.5775 15.3662 37.9591 15.3662C38.7223 15.3662 39.3047 15.1453 39.7867 14.5428C40.4695 13.6591 40.5097 12.1528 40.5097 9.86331Z" fill="white"/>
</g>
</svg>
