<svg width="138" height="33" viewBox="0 0 138 33" fill="none" xmlns="http://www.w3.org/2000/svg">
<path id="Vector" d="M36.9723 4.57381C33.4276 1.28067 29.7457 0.594596 25.3319 0.594596H17.3964V32.0852H25.3319C29.2197 32.0852 33.3361 31.5821 37.1323 27.9002C40.2425 24.9044 41.9577 20.8108 41.9577 16.3742C41.9806 11.8004 40.1968 7.59252 36.9723 4.57381ZM39.8995 16.3742C39.8995 20.1247 38.4359 23.6694 35.7831 26.3222C33.1531 28.9293 30.043 30.0499 25.3777 30.0499H19.4775V2.62994H25.3777C29.9286 2.62994 32.8558 3.6133 35.4858 5.99168C38.3215 8.62162 39.8995 12.3264 39.8995 16.3742ZM128.105 16.9459C128.837 16.8545 129.615 16.6486 130.644 16.1455C133.457 14.7963 135.058 12.0748 135.058 8.64449C135.058 5.92308 133.914 3.65904 131.65 1.96673C129.798 0.571723 127.625 0.594596 125.087 0.594596H124.309H118.432V32.0852H120.513V16.9917H125.59C125.91 17.4491 136.109 32.3368 136.109 32.3368L137.756 31.0104L128.105 16.9459ZM132.999 8.55302C132.999 11.1601 131.856 13.2183 129.775 14.3389C128.563 14.9792 126.985 14.9792 125.567 14.9563H125.155H120.536V2.62994H124.835H125.292C126.985 2.62994 129.066 2.60707 130.438 3.59044C132.085 4.75676 132.999 6.51767 132.999 8.55302ZM43.3527 0.525988V32.1538H58.1261V29.9584H45.571V16.763H57.8059V14.5676H45.571V2.69855H58.1261V0.525988H43.3527ZM83.8995 28.2432C81.4068 29.9127 78.4109 30.9189 75.8496 30.9189C72.3735 30.9189 68.44 29.2266 65.5814 26.5052C62.86 23.8981 61.3049 20.3306 61.3049 16.6944C61.3049 8.82745 67.9598 2.17256 75.8496 2.17256C79.0741 2.17256 82.2301 3.31601 84.7457 5.41996L85.0887 5.71726L86.6666 4.36798L86.1864 3.95634C83.3735 1.50936 79.623 0.114345 75.9182 0.114345C71.5045 0.114345 67.3423 1.82952 64.1635 4.93971C60.9619 8.07276 59.201 12.2121 59.201 16.6029C59.201 25.4761 66.8392 32.9771 75.8725 32.9771C79.1656 32.9771 82.3673 31.9709 85.1802 30.0499L85.6375 29.7297L84.3111 27.9688L83.8995 28.2432ZM100.502 0C91.5149 0 83.9224 7.59252 83.9224 16.58C83.9224 20.9252 85.6604 25.0416 88.8392 28.1746C91.9951 31.2848 96.1344 33 100.502 33C104.87 33 109.01 31.2848 112.166 28.1746C115.344 25.0416 117.082 20.9252 117.082 16.58C117.082 7.59252 109.49 0 100.502 0ZM90.3028 26.6881C87.5585 23.9667 86.0492 20.3763 86.0492 16.58C86.0492 8.7131 92.6583 2.05822 100.502 2.05822C108.369 2.05822 115.001 8.7131 115.001 16.58C115.001 24.3326 108.369 30.896 100.502 30.896C96.6833 30.9189 93.0471 29.4096 90.3028 26.6881ZM11.359 26.2308V26.4823H11.4047C14.0575 26.4823 14.9951 27.8087 14.9951 29.0665V29.6154H7.90574V29.4096C7.90574 28.4948 8.86624 27.9459 10.4899 27.9459H10.5357V27.6944H4.90989V27.9459H4.95563C6.28204 27.9459 7.63131 28.4033 7.63131 29.4096V29.6154H0.793471V28.9064C0.793471 27.8087 1.68536 26.5052 4.17809 26.5052H4.22382V26.2536H0.541912V32.0852H0.81634V31.1247H15.018V32.0852H15.2924V26.2308H11.359ZM11.3361 17.4262V17.7006H11.3818C13.6916 17.7464 14.9951 18.6611 14.9951 20.1933V20.8565H0.793471V19.7588H0.519043V23.4865H0.793471V22.3888H14.9951V23.4865H15.2696V17.4262H11.3361ZM11.3361 8.82744V9.10187H11.3818C13.6916 9.14761 14.9951 10.0624 14.9951 11.5946V12.2578H0.793471V11.1601H0.519043V14.8877H0.793471V13.79H14.9951V14.8877H15.2696V8.82744H11.3361ZM15.2238 0.594596H11.359V0.846153H11.4047C14.0575 0.846153 14.9951 2.17256 14.9951 3.43036V3.97921H7.90574V3.77339C7.90574 2.85863 8.86624 2.30977 10.4899 2.30977H10.5357V2.05822H4.90989V2.30977H4.95563C6.28204 2.30977 7.63131 2.76716 7.63131 3.77339V3.97921H0.793471V3.27027C0.793471 2.17256 1.68536 0.869024 4.17809 0.869024H4.22382V0.617463H0.541912V6.44906H0.81634V5.48857H15.018V6.44906H15.2924V0.594596C15.2696 0.594596 15.2238 0.594596 15.2238 0.594596ZM121.13 30.9647C121.13 30.553 121.473 30.21 121.885 30.21C122.297 30.21 122.64 30.553 122.64 30.9647C122.64 31.3763 122.297 31.7193 121.885 31.7193C121.473 31.7193 121.13 31.3763 121.13 30.9647ZM122.548 30.9647C122.548 30.5988 122.251 30.3015 121.908 30.3015C121.542 30.3015 121.245 30.5988 121.245 30.9647C121.245 31.3306 121.542 31.6279 121.908 31.6279C122.251 31.6279 122.548 31.3306 122.548 30.9647ZM122.251 31.3763H122.137L121.908 30.9875H121.702V31.3763H121.611V30.553H121.976C122.182 30.553 122.274 30.6445 122.274 30.7817C122.274 30.9418 122.159 31.0104 122.022 31.0104L122.251 31.3763ZM121.862 30.9189C121.976 30.9189 122.159 30.9418 122.159 30.7817C122.159 30.6674 122.045 30.6674 121.931 30.6674H121.702V30.9189H121.862Z" fill="white"/>
</svg>
