<svg width="125" height="45" viewBox="0 0 125 45" fill="none" xmlns="http://www.w3.org/2000/svg">
<path id="Vector" d="M0.412109 0V35.3609H15.1027V29.6916H6.04005V0H0.412109ZM16.0545 9.55923H21.1859V35.3609H16.0545V9.55923ZM30.5382 26.1741H30.6209L34.0143 9.55923H39.1456L33.1039 35.3609H28.0553L22.0135 9.55923H27.1449L30.5382 26.1741ZM39.9733 9.55923H45.1046V35.3609H39.9733V9.55923ZM46.4909 35.3609V9.55923H51.4567V12.4974C53.3396 10.5938 55.0777 9.08334 57.2088 9.08334C60.3539 9.08334 61.9885 10.9248 61.9885 15.7251V35.3609H56.8364V16.3873C56.8364 14.6699 56.3398 13.5526 54.9535 13.5526C53.8983 13.5526 52.7189 14.7113 51.6223 15.8907V35.3816C51.6223 35.3609 46.4909 35.3609 46.4909 35.3609ZM74.1341 37.0782C75.6859 37.2231 76.0169 37.5955 76.0169 38.4645C76.0169 39.7888 74.5893 40.5129 72.127 40.5129C69.1061 40.5129 67.4302 39.9543 67.4302 38.6094C67.4302 37.6576 67.9681 37.1403 68.4854 36.5196L74.1341 37.0782ZM81.1483 9.06265C79.224 9.06265 77.9619 10.1593 76.6584 12.0421C75.2928 10.2007 73.1616 9.10403 70.8649 9.06265C65.1128 9.06265 63.2713 13.2422 63.2713 18.7874C63.2713 23.1118 64.1196 25.8637 66.6025 27.7466C65.3404 28.657 63.4989 30.0226 63.4989 32.071C63.4989 33.747 64.3886 34.8643 65.6094 35.7333C64.3886 36.623 62.5057 37.8024 62.5057 39.7681C62.5057 42.6648 65.5266 44.4649 70.989 44.4649C76.948 44.4649 80.8586 42.3751 80.8586 37.9679C80.8586 28.6363 67.9681 33.6021 67.9681 30.3744C67.9681 29.7536 68.5682 29.3398 68.8579 28.8639C69.5407 29.1122 70.2648 29.2157 70.9683 29.195C76.0169 29.195 78.3964 25.4913 78.3964 19.0357C78.3964 17.4839 78.0653 16.1803 77.755 14.4837C78.4585 14.2561 78.9757 13.925 79.5137 13.925C80.0517 14.0078 80.5896 14.1319 81.1069 14.3182L81.1483 9.06265ZM73.5547 18.8909C73.5547 23.4015 72.8098 24.3326 70.6166 24.3326C69.0648 24.3326 68.1751 22.7187 68.1751 19.4909C68.1751 15.4562 68.9199 13.9043 70.8649 13.9043C72.665 13.9043 73.5547 15.5596 73.5547 18.8909ZM97.37 23.8981V17.877C97.37 12.6008 93.9767 9.10403 89.1971 9.10403C84.2933 9.10403 81.0242 12.6008 81.0242 18.2701V26.712C81.0242 32.3607 84.2933 35.8782 89.1971 35.8782C94.3698 35.8782 97.101 32.7745 97.37 27.4362H92.2387C92.2387 29.4226 91.3903 31.0365 89.2178 31.0365C87.5004 31.0365 86.1969 29.8985 86.1969 27.3328V23.9188H97.37V23.8981ZM86.2176 19.0564V17.6287C86.2176 15.3527 87.1487 13.925 89.2385 13.925C91.3283 13.925 92.2594 15.3527 92.2594 17.6287V19.0564H86.2176ZM97.37 14.4009V9.55923H99.4184V3.45539H104.55V9.55923H107.86V14.4009H104.57V28.7191C104.57 30.0019 105.502 30.6227 106.909 30.6227C107.24 30.6227 107.591 30.6226 107.922 30.5813V35.6092C106.95 35.7747 105.977 35.8575 104.984 35.8368C101.653 35.8368 99.4391 34.4091 99.4391 30.7054V14.3802H97.37V14.4009ZM119.406 18.477V17.339C119.406 15.3527 118.185 14.2975 116.385 14.2975C114.585 14.2975 113.364 15.332 113.364 17.339V27.5811C113.364 29.5674 114.585 30.6227 116.385 30.6227C118.185 30.6227 119.406 29.5881 119.406 27.5811V25.9672H124.537V26.0706C124.537 32.8987 121.516 35.8368 116.364 35.8368C111.212 35.8368 108.191 32.8987 108.191 26.0706V18.8702C108.191 12.0421 111.212 9.10403 116.364 9.10403C121.392 9.10403 124.392 11.9594 124.475 18.4977L119.406 18.477ZM39.9526 3.45539H45.1046V8.31777H39.9526V3.45539ZM16.0752 3.45539H21.2272V8.31777H16.0752V3.45539Z" fill="white"/>
</svg>
