<svg width="11" height="16" viewBox="0 0 11 16" fill="none" xmlns="http://www.w3.org/2000/svg">
<path d="M10.4503 1.057C10.4503 0.943768 10.4025 0.835171 10.3173 0.755101C10.2321 0.675032 10.1165 0.630049 9.99605 0.630049H7.72468C6.58093 0.576501 5.46112 0.950599 4.60992 1.67061C3.75873 2.39061 3.24534 3.39799 3.18194 4.47264V6.7782H0.910572C0.790092 6.7782 0.674545 6.82318 0.589353 6.90325C0.50416 6.98332 0.456299 7.09192 0.456299 7.20515V9.42532C0.456299 9.53855 0.50416 9.64715 0.589353 9.72722C0.674545 9.80729 0.790092 9.85227 0.910572 9.85227H3.18194V15.5735C3.18194 15.6867 3.2298 15.7953 3.31499 15.8754C3.40019 15.9554 3.51573 16.0004 3.63621 16.0004H6.36186C6.48234 16.0004 6.59788 15.9554 6.68308 15.8754C6.76827 15.7953 6.81613 15.6867 6.81613 15.5735V9.85227H9.19652C9.29755 9.85363 9.39617 9.82331 9.4768 9.76609C9.55742 9.70887 9.61545 9.62802 9.64171 9.53632L10.2959 7.31616C10.3139 7.25307 10.3164 7.18693 10.303 7.12283C10.2896 7.05872 10.2607 6.99836 10.2186 6.94639C10.1764 6.89442 10.1222 6.85224 10.06 6.82308C9.99777 6.79392 9.92928 6.77856 9.85976 6.7782H6.81613V4.47264C6.83873 4.26128 6.94434 4.06542 7.11234 3.92332C7.28034 3.78121 7.49866 3.70306 7.72468 3.70412H9.99605C10.1165 3.70412 10.2321 3.65914 10.3173 3.57907C10.4025 3.499 10.4503 3.3904 10.4503 3.27717V1.057Z" fill="white"/>
</svg>
