<svg width="14" height="14" viewBox="0 0 14 14" fill="none" xmlns="http://www.w3.org/2000/svg">
<path fill-rule="evenodd" clip-rule="evenodd" d="M4.13956 0.0790001C4.88429 0.0450221 5.12167 0.0371094 7.01792 0.0371094C8.91464 0.0371094 9.15156 0.0454875 9.89582 0.0790001C10.6391 0.112978 11.1474 0.231669 11.5915 0.403421C12.0572 0.57883 12.479 0.853617 12.8277 1.20865C13.1829 1.55743 13.4577 1.97947 13.6329 2.44536C13.8056 2.8894 13.9238 3.39721 13.9578 4.14054C13.9918 4.88527 13.9997 5.12265 13.9997 7.0189C13.9997 8.91516 13.9918 9.15254 13.9578 9.89726C13.9238 10.6406 13.8056 11.1484 13.6334 11.5924C13.458 12.0581 13.1832 12.48 12.8282 12.8287C12.4791 13.1843 12.0569 13.4589 11.5915 13.6339C11.1474 13.8066 10.6396 13.9248 9.89629 13.9588C9.15156 13.9928 8.91418 14.0007 7.01792 14.0007C5.12167 14.0007 4.88429 13.9928 4.13956 13.9588C3.39624 13.9248 2.88843 13.8066 2.44439 13.6344C1.9787 13.459 1.55684 13.1842 1.20814 12.8291C0.852537 12.4801 0.57792 12.0579 0.40291 11.5924C0.230227 11.1484 0.112002 10.6406 0.0780236 9.89726C0.0440455 9.15254 0.0361328 8.91562 0.0361328 7.0189C0.0361328 5.12218 0.044511 4.88527 0.0780236 4.14101C0.112002 3.39768 0.230692 2.8894 0.402444 2.44536C0.577854 1.97967 0.85264 1.55781 1.20768 1.20912C1.55677 0.853514 1.97893 0.578896 2.44439 0.403886C2.88843 0.231203 3.39624 0.112978 4.13956 0.0790001ZM9.8395 1.33572C9.10315 1.30221 8.88206 1.29523 7.01792 1.29523C5.15379 1.29523 4.9327 1.30221 4.19635 1.33572C3.51586 1.36691 3.14629 1.48048 2.90006 1.57636C2.59678 1.68806 2.32241 1.86636 2.09716 2.09813C1.85326 2.3425 1.70152 2.57522 1.57539 2.90104C1.47904 3.14726 1.36593 3.51683 1.33475 4.19733C1.30123 4.93367 1.29425 5.15476 1.29425 7.0189C1.29425 8.88304 1.30123 9.10413 1.33475 9.84048C1.36593 10.521 1.4795 10.8905 1.57539 11.1368C1.68715 11.44 1.86544 11.7144 2.09716 11.9397C2.32244 12.1714 2.5968 12.3497 2.90006 12.4614C3.14629 12.5578 3.51586 12.6709 4.19635 12.7021C4.9327 12.7356 5.15332 12.7426 7.01792 12.7426C8.88253 12.7426 9.10315 12.7356 9.8395 12.7021C10.52 12.6709 10.8896 12.5573 11.1358 12.4614C11.4391 12.3498 11.7135 12.1715 11.9387 11.9397C12.1704 11.7144 12.3487 11.44 12.4605 11.1368C12.5568 10.8905 12.6699 10.521 12.7011 9.84048C12.7346 9.10413 12.7416 8.88304 12.7416 7.0189C12.7416 5.15476 12.7346 4.93367 12.7011 4.19733C12.6699 3.51683 12.5563 3.14726 12.4605 2.90104C12.3343 2.57522 12.1831 2.3425 11.9387 2.09813C11.6943 1.85424 11.4616 1.7025 11.1358 1.57636C10.8896 1.48001 10.52 1.36691 9.8395 1.33572ZM6.12581 9.17143C6.40845 9.2885 6.71138 9.34876 7.01731 9.34876C7.63515 9.34876 8.22769 9.10332 8.66458 8.66644C9.10146 8.22955 9.3469 7.63701 9.3469 7.01917C9.3469 6.40132 9.10146 5.80878 8.66458 5.3719C8.22769 4.93501 7.63515 4.68958 7.01731 4.68958C6.71138 4.68958 6.40845 4.74983 6.12581 4.8669C5.84317 4.98398 5.58636 5.15557 5.37004 5.3719C5.15371 5.58822 4.98212 5.84503 4.86504 6.12767C4.74797 6.41031 4.68772 6.71324 4.68772 7.01917C4.68772 7.32509 4.74797 7.62802 4.86504 7.91066C4.98212 8.1933 5.15371 8.45011 5.37004 8.66644C5.58636 8.88276 5.84317 9.05436 6.12581 9.17143ZM4.47975 4.48161C5.15275 3.80861 6.06554 3.43053 7.01731 3.43053C7.96907 3.43053 8.88186 3.80861 9.55486 4.48161C10.2279 5.15461 10.6059 6.0674 10.6059 7.01917C10.6059 7.97093 10.2279 8.88372 9.55486 9.55672C8.88186 10.2297 7.96907 10.6078 7.01731 10.6078C6.06554 10.6078 5.15275 10.2297 4.47975 9.55672C3.80675 8.88372 3.42867 7.97093 3.42867 7.01917C3.42867 6.0674 3.80675 5.15461 4.47975 4.48161ZM11.4015 3.96519C11.5606 3.80611 11.65 3.59034 11.65 3.36536C11.65 3.14038 11.5606 2.92462 11.4015 2.76553C11.2424 2.60645 11.0266 2.51707 10.8017 2.51707C10.5767 2.51707 10.3609 2.60645 10.2018 2.76553C10.0428 2.92462 9.95338 3.14038 9.95338 3.36536C9.95338 3.59034 10.0428 3.80611 10.2018 3.96519C10.3609 4.12428 10.5767 4.21365 10.8017 4.21365C11.0266 4.21365 11.2424 4.12428 11.4015 3.96519Z" fill="white"/>
</svg>
