<svg width="65" height="64" viewBox="0 0 65 64" fill="none" xmlns="http://www.w3.org/2000/svg">
<path d="M17 47.1123H42.4682" stroke="white" stroke-linecap="round" stroke-linejoin="round"/>
<path d="M30.8917 39.0087L23.9458 40.2589L25.1034 33.2204L40.6853 17.6849C40.9006 17.4678 41.1566 17.2956 41.4388 17.1781C41.7209 17.0605 42.0235 17 42.3292 17C42.6348 17 42.9374 17.0605 43.2196 17.1781C43.5017 17.2956 43.7578 17.4678 43.973 17.6849L46.4272 20.1391C46.6442 20.3543 46.8165 20.6104 46.934 20.8925C47.0516 21.1747 47.1121 21.4773 47.1121 21.7829C47.1121 22.0886 47.0516 22.3912 46.934 22.6733C46.8165 22.9555 46.6442 23.2115 46.4272 23.4268L30.8917 39.0087Z" stroke="white" stroke-linecap="round" stroke-linejoin="round"/>
</svg>
