<svg width="14" height="15" viewBox="0 0 14 15" fill="none" xmlns="http://www.w3.org/2000/svg">
<path d="M10.3534 7.04336C10.2897 7.01282 10.2247 6.98317 10.1589 6.95525C10.0446 4.84599 8.89226 3.63826 6.95702 3.62605C5.84045 3.61863 4.84078 4.07398 4.21794 5.01914L5.28217 5.74927C5.72487 5.07759 6.41967 4.93453 6.93129 4.93453H6.94873C7.58596 4.93845 8.06705 5.12382 8.37803 5.48496C8.6044 5.7484 8.75618 6.11172 8.8312 6.57056C8.26594 6.4746 7.65531 6.44495 7.00195 6.48246C5.16223 6.58844 3.97936 7.66139 4.05874 9.15219C4.09887 9.90892 4.47571 10.5592 5.11948 10.9845C5.66381 11.3439 6.36515 11.5197 7.09354 11.4795C8.05614 11.4272 8.8107 11.0599 9.33758 10.3887C9.73754 9.87883 9.99051 9.21805 10.1022 8.38585C10.5606 8.66238 10.9003 9.02657 11.0883 9.46448C11.4072 10.2086 11.4259 11.4316 10.428 12.4286C9.55392 13.3022 8.50277 13.68 6.91471 13.6917C5.15263 13.6786 3.82017 13.1134 2.95395 12.0121C2.1427 10.981 1.72355 9.49152 1.70785 7.58507C1.72355 5.67861 2.1427 4.18913 2.95395 3.15805C3.82017 2.05675 5.15263 1.49148 6.91471 1.4784C8.68901 1.49148 10.0446 2.05936 10.9444 3.1659C11.3853 3.70848 11.7177 4.39107 11.9371 5.18663L13.1841 4.85384C12.9184 3.87466 12.5006 3.03069 11.9314 2.33065C10.7782 0.911829 9.09202 0.185187 6.91908 0.169922H6.91035C4.74177 0.185187 3.0739 0.914882 1.95384 2.33894C0.956779 3.60598 0.442547 5.36938 0.425537 7.57983V7.5903C0.442547 9.80075 0.956779 11.5641 1.95384 12.8312C3.0739 14.2552 4.74177 14.9854 6.91035 15.0002H6.91908C8.8469 14.9867 10.206 14.4821 11.3256 13.3633C12.7902 11.9 12.7462 10.0659 12.2633 8.93978C11.917 8.13245 11.2567 7.47646 10.3534 7.04336ZM7.02463 10.1732C6.21861 10.2186 5.38074 9.85658 5.33931 9.08153C5.30878 8.50667 5.74843 7.86508 7.07435 7.78875C7.22613 7.78003 7.3753 7.77567 7.52141 7.77567C8.00293 7.77567 8.45348 7.82234 8.86304 7.91219C8.71038 9.81995 7.81451 10.1296 7.02463 10.1732Z" fill="white"/>
</svg>
