<svg width="17" height="12" viewBox="0 0 17 12" fill="none" xmlns="http://www.w3.org/2000/svg">
<path fill-rule="evenodd" clip-rule="evenodd" d="M14.2762 0.828584C14.9523 1.01846 15.4871 1.57757 15.6687 2.28434C16.0017 3.57132 16.0118 6.24022 16.0118 6.24022C16.0118 6.24022 16.0118 8.91966 15.6788 10.1961C15.4972 10.9029 14.9624 11.462 14.2863 11.6519C13.0654 12 8.15139 12 8.15139 12C8.15139 12 3.23739 12 2.01646 11.6519C1.34041 11.462 0.805624 10.9029 0.623997 10.1961C0.291016 8.90912 0.291016 6.24022 0.291016 6.24022C0.291016 6.24022 0.291016 3.57132 0.613906 2.2949C0.795533 1.58811 1.33032 1.02902 2.00637 0.839137C3.22731 0.491015 8.1413 0.480469 8.1413 0.480469C8.1413 0.480469 13.0553 0.480469 14.2762 0.828584ZM10.6538 6.24022L6.5773 8.70868V3.77176L10.6538 6.24022Z" fill="white"/>
</svg>
